<?xml version="1.0" encoding="UTF-8" standalone="no"?>
<!-- Created with Inkscape (http://www.inkscape.org/) -->
<svg
   xmlns:svg="http://www.w3.org/2000/svg"
   xmlns="http://www.w3.org/2000/svg"
   version="1.0"
   width="386.65683"
   height="673.86011"
   id="svg2">
  <defs
     id="defs4" />
  <path
     d="M 52.303267,66.90887 L 52.241277,32.59175 L 122.04444,32.20842 L 122.04444,66.71721 L 122.04444,101.226 L 87.204847,101.226 L 52.365257,101.226 L 52.303267,66.90887 z"
     id="path2454"
     style="fill:#e9bd23" />
  <path
     d="M 252.30327,66.90888 L 252.24128,32.59176 L 322.04444,32.20843 L 322.04444,66.71722 L 322.04444,101.22601 L 287.20485,101.22601 L 252.36526,101.22601 L 252.30327,66.90888 z"
     id="path2456"
     style="fill:#e9bd23" />
  <path
     d="M 66.902593,146.72471 L 35.735003,26.893222 L 131.76879,27.708292 L 138.33769,128.13624 L 236.73597,127.98123 L 252.67619,27.343642 L 339.98206,28.900562 L 319.02748,138.30891 L 322.6999,669.05521 L 60.134633,667.28488 L 66.902593,146.72471 z M 83.710293,89.224712 C 84.403393,87.849712 84.977193,83.237212 84.985293,78.974712 L 84.999993,71.224712 L 76.222493,71.224712 C 69.896693,71.224712 66.824293,71.659512 65.222493,72.781412 C 61.258093,75.558182 62.903793,78.224712 68.581793,78.224712 C 71.609093,78.224712 71.674793,79.515572 68.749993,81.532012 L 66.499993,83.083252 L 68.717293,82.545922 C 71.402293,81.895212 73.402093,79.684252 72.550993,78.307252 C 72.209393,77.754462 70.374593,77.010402 68.473693,76.653792 C 62.801993,75.589782 65.594393,74.224712 73.442493,74.224712 L 80.766993,74.224712 L 81.458293,80.679862 C 82.405493,89.524702 80.108993,93.888002 78.797093,85.736192 C 78.351293,82.966582 75.369793,82.665262 73.986493,85.250032 C 73.354793,86.430312 73.117293,87.675312 73.458693,88.016692 C 73.799993,88.358062 74.338993,87.644522 74.656293,86.431042 C 75.544693,83.033932 76.676993,83.803152 77.394693,88.291322 C 77.949293,91.759802 78.368893,92.311362 80.247493,92.041322 C 81.458793,91.867182 83.017093,90.599712 83.710293,89.224712 z M 97.964793,90.290452 C 98.534193,89.226612 99.009993,87.314112 99.022293,86.040452 L 99.044493,83.724712 L 101.03319,86.224712 L 103.02189,88.724712 L 102.14639,86.224712 C 100.83339,82.475272 97.815693,82.996942 96.736993,87.159842 C 96.062793,89.761772 95.626593,90.246882 94.938793,89.159842 C 93.879193,87.485342 93.767193,83.266502 94.641893,77.974712 L 95.261693,74.224712 L 102.57189,74.224712 C 110.40799,74.224712 113.19389,75.590562 107.52639,76.653792 C 105.62549,77.010402 103.79069,77.754462 103.44899,78.307252 C 102.59799,79.684252 104.59769,81.895212 107.28279,82.545922 L 109.49999,83.083252 L 107.24999,81.532012 C 104.32529,79.515572 104.39089,78.224712 107.41819,78.224712 C 113.09629,78.224712 114.74189,75.558182 110.77749,72.781412 C 109.17119,71.656302 106.09389,71.224712 99.677993,71.224712 L 90.800993,71.224712 L 91.150493,80.072772 C 91.498893,88.892772 92.715393,92.224712 95.587293,92.224712 C 96.325593,92.224712 97.395493,91.354292 97.964793,90.290452 z M 283.02479,89.659612 C 283.56119,88.248812 283.99999,83.523812 283.99999,79.159612 L 283.99999,71.224712 L 274.99999,71.224712 C 267.23619,71.224712 265.71609,71.508612 263.93309,73.291622 C 261.34929,75.875442 262.83999,78.224712 267.06349,78.224712 C 270.72819,78.224712 271.77339,79.982982 268.81429,81.169782 C 267.54139,81.680272 267.02569,82.126462 267.66819,82.161322 C 272.91839,82.446192 273.65499,77.625802 268.50879,76.660372 C 262.95179,75.617872 265.49319,74.224712 272.95209,74.224712 C 280.85349,74.224712 280.99999,74.388992 280.99999,83.247482 C 280.99999,89.935502 279.43149,92.041332 278.42919,86.698852 C 277.89279,83.839872 277.34989,83.178672 275.73749,83.421062 C 273.80519,83.711562 271.15399,88.224712 272.91559,88.224712 C 273.38369,88.224712 274.01399,87.279432 274.31609,86.124092 C 275.06599,83.256442 276.99999,84.692562 276.99999,88.117062 C 276.99999,91.374232 277.66079,92.224712 280.19139,92.224712 C 281.26579,92.224712 282.46089,91.142832 283.02479,89.659612 z M 297.39299,90.642922 C 297.72689,89.772942 297.99999,87.972942 297.99999,86.642922 C 297.99999,83.607042 299.35689,83.524922 300.77949,86.474712 C 301.44409,87.852712 301.88499,88.143372 301.91699,87.224712 C 302.09499,82.127662 296.67809,81.899082 296.18669,86.982902 C 296.01429,88.765902 295.43289,90.224712 294.89459,90.224712 C 294.31539,90.224712 294.03509,87.061242 294.20799,82.474712 L 294.49999,74.724712 L 301.40089,74.425582 C 309.03599,74.094622 312.38269,75.555142 306.51259,76.656372 C 303.55869,77.210522 302.93449,77.729972 303.18789,79.422822 C 303.48379,81.398622 307.99999,84.107462 307.99999,82.309122 C 307.99999,81.840992 307.09999,81.222622 305.99999,80.934962 C 302.69939,80.071842 303.74309,78.224712 307.53139,78.224712 C 312.04939,78.224712 313.29119,75.688682 310.05599,73.068952 C 308.21839,71.580932 306.03429,71.224712 298.74829,71.224712 L 289.71809,71.224712 L 290.23839,79.565072 C 290.52459,84.152272 291.27889,88.877272 291.91459,90.065072 C 293.26359,92.585642 296.51589,92.928692 297.39299,90.642922 z M 84.900293,57.474712 C 84.782093,48.283142 84.074793,45.294162 81.668693,43.819352 C 80.249093,42.949172 79.587293,43.122752 78.441493,44.665842 C 77.648693,45.733462 76.999993,47.645962 76.999993,48.915842 C 76.999993,51.852902 75.415693,51.922222 74.656293,49.018382 C 74.338993,47.804902 73.799993,47.091362 73.458693,47.432732 C 72.352393,48.539022 75.085793,52.354852 76.754293,52.033512 C 77.644993,51.861992 78.778293,50.160002 79.272893,48.251312 C 80.765693,42.490432 82.351593,47.117102 81.526193,54.824912 L 80.840793,61.224712 L 73.420393,61.224712 C 69.140193,61.224712 65.999993,60.801532 65.999993,60.224712 C 65.999993,59.674712 67.069893,59.224712 68.377593,59.224712 C 69.685193,59.224712 71.355793,58.501012 72.089793,57.616502 C 73.223793,56.250102 73.138293,55.799022 71.521093,54.616502 C 70.474293,53.851012 68.916293,53.253232 68.058893,53.288102 C 67.090893,53.327462 67.352893,53.694292 68.749993,54.255872 C 71.910093,55.526062 71.550993,57.224712 68.122493,57.224712 C 64.002993,57.224712 62.195693,59.678452 64.466693,62.187922 C 66.350493,64.269522 69.067593,64.816752 78.749993,65.064672 L 84.999993,65.224712 L 84.900293,57.474712 z M 111.33589,62.333282 C 113.00279,60.666422 113.12079,60.075142 112.04529,58.779242 C 111.33569,57.924252 109.46019,57.224712 107.87759,57.224712 C 104.44899,57.224712 104.08999,55.526062 107.24999,54.255872 C 109.45879,53.368062 109.46099,53.350322 107.37249,53.288102 C 106.20229,53.253232 104.68469,53.899712 103.99999,54.724712 C 102.33239,56.734132 104.33719,59.224712 107.62249,59.224712 C 108.93009,59.224712 109.99999,59.674712 109.99999,60.224712 C 109.99999,60.800912 106.87699,61.224712 102.63089,61.224712 L 95.261693,61.224712 L 94.641893,57.474712 C 93.767193,52.182922 93.879193,47.964082 94.938793,46.289582 C 95.626593,45.202542 96.062793,45.687652 96.736993,48.289582 C 97.787093,52.341972 100.80719,52.978212 102.12199,49.424022 C 102.66489,47.956502 102.61579,47.344132 101.98659,47.733042 C 101.44399,48.068382 100.99999,48.991192 100.99999,49.783732 C 100.99999,50.576272 100.54999,51.224712 99.999993,51.224712 C 99.449993,51.224712 98.999993,50.185722 98.999993,48.915842 C 98.999993,45.649052 96.652893,42.760182 94.629593,43.536602 C 92.067493,44.519792 90.999993,48.608132 90.999993,57.437832 L 90.999993,65.520752 L 100.16819,64.926772 C 107.48639,64.452642 109.73989,63.929332 111.33589,62.333282 z M 283.99999,56.335492 C 283.99999,49.186492 283.63899,47.000412 282.15579,45.168742 C 279.53609,41.933512 276.99999,43.175322 276.99999,47.693322 C 276.99999,51.764902 275.92079,52.177042 273.64479,48.974712 L 272.04559,46.724712 L 272.88169,49.224712 C 273.34149,50.599712 274.62659,51.861352 275.73749,52.028362 C 277.35849,52.272052 277.89379,51.604642 278.44839,48.648112 C 279.56949,42.672462 281.13329,46.115612 280.79919,53.823842 L 280.49999,60.724712 L 272.74999,61.016772 C 267.85459,61.201262 264.99999,60.925012 264.99999,60.266772 C 264.99999,59.693642 265.86319,59.224712 266.91819,59.224712 C 270.12869,59.224712 271.99999,58.105392 271.99999,56.185112 C 271.99999,54.471112 268.44219,52.449202 267.34929,53.542102 C 267.07429,53.817102 267.78319,54.338512 268.92469,54.700792 C 272.14629,55.723302 271.37169,57.224712 267.62249,57.224712 C 263.39739,57.224712 261.50509,59.165582 263.31579,61.641922 C 264.92219,63.838772 269.69859,64.990482 277.74999,65.122352 L 283.99999,65.224712 L 283.99999,56.335492 z M 309.81099,63.325852 C 314.15739,60.999772 312.05809,57.224712 306.41819,57.224712 C 303.38239,57.224712 303.30019,55.867832 306.24999,54.445202 C 307.62799,53.780622 307.91869,53.339782 306.99999,53.307702 C 301.88829,53.129242 301.67769,58.547212 306.77719,59.039482 C 312.84109,59.624852 308.93439,61.224712 301.44099,61.224712 L 293.99999,61.224712 L 293.99999,53.024712 C 293.99999,48.038512 294.35879,45.197042 294.91529,45.774712 C 295.41879,46.297212 295.98129,47.845112 296.16529,49.214492 C 296.76159,53.649872 302.07449,52.735582 301.91699,48.224712 C 301.88499,47.306052 301.44409,47.596712 300.77949,48.974712 C 299.35689,51.924502 297.99999,51.842382 297.99999,48.806502 C 297.99999,45.094752 296.97089,43.224712 294.92819,43.224712 C 292.04359,43.224712 290.77169,46.824542 290.21659,56.560782 L 289.70579,65.518892 L 298.66399,65.008132 C 303.59089,64.727202 308.60709,63.970182 309.81099,63.325852 z"
     id="path2422"
     style="fill:#cf271d" />
  <path
     d="M 275.12057,217.33749 L 276.28839,211.09183 C 288.69266,207.48575 299.34038,208.58923 309.63591,210.637 L 310.03552,217.28864 L 309.63591,222.15458 C 299.3332,226.41303 287.98519,226.46749 275.55122,222.15458 L 275.12057,217.33749 z"
     id="path2460"
     style="fill:#e9bd23" />
  <path
     d="M 115.14772,244.69064 L 115.09841,223.86957 L 170.61586,223.637 L 170.61586,244.57436 L 170.61586,265.51172 L 142.90644,265.51172 L 115.19702,265.51172 L 115.14772,244.69064 z"
     id="path2462"
     style="fill:#e9bd23" />
  <path
     d="M 218.71916,244.69064 L 218.66985,223.86957 L 274.1873,223.637 L 274.1873,244.57436 L 274.1873,265.51172 L 246.47788,265.51172 L 218.76846,265.51172 L 218.71916,244.69064 z"
     id="path2464"
     style="fill:#e9bd23" />
  <path
     d="M 105.11724,410.65797 L 105.05398,304.59867 L 176.28571,303.41397 L 176.28571,410.06562 L 176.28571,516.71726 L 140.73311,516.71726 L 105.1805,516.71726 L 105.11724,410.65797 z"
     id="path2424"
     style="fill:#1572a7" />
  <path
     d="M 101.59406,371.11921 L 101.52699,350.29814 L 177.04444,350.06557 L 177.04444,371.00293 L 177.04444,391.94029 L 139.35278,391.94029 L 101.66112,391.94029 L 101.59406,371.11921 z"
     id="path2466"
     style="fill:#e9bd23" />
  <path
     d="M 210.29146,410.44122 L 210.2282,304.38192 L 281.45993,303.19722 L 281.45993,409.84887 L 281.45993,516.50051 L 245.90733,516.50051 L 210.35472,516.50051 L 210.29146,410.44122 z"
     id="path2484"
     style="fill:#1572a7" />
  <path
     d="M 209.4512,370.40493 L 209.38413,349.58386 L 284.90158,349.35129 L 284.90158,370.28865 L 284.90158,391.22601 L 247.20992,391.22601 L 209.51826,391.22601 L 209.4512,370.40493 z"
     id="path2468"
     style="fill:#e9bd23" />
  <path
     d="M 103.73692,453.97635 L 103.66985,433.15528 L 179.1873,432.92271 L 179.1873,453.86007 L 179.1873,474.79743 L 141.49564,474.79743 L 103.80398,474.79743 L 103.73692,453.97635 z"
     id="path2470"
     style="fill:#e9bd23" />
  <path
     d="M 208.02471,455.40492 L 207.95556,434.58385 L 285.81676,434.35128 L 285.81676,455.28864 L 285.81676,476.226 L 246.95531,476.226 L 208.09385,476.226 L 208.02471,455.40492 z"
     id="path2472"
     style="fill:#e9bd23" />
  <path
     d="M 104.4512,536.8335 L 104.38413,516.01243 L 179.90158,515.77986 L 179.90158,536.71722 L 179.90158,557.65458 L 142.20992,557.65458 L 104.51826,557.65458 L 104.4512,536.8335 z"
     id="path2474"
     style="fill:#e9bd23" />
  <path
     d="M 208.73692,538.97636 L 208.66985,518.15529 L 284.1873,517.92272 L 284.1873,538.86008 L 284.1873,559.79744 L 246.49564,559.79744 L 208.80398,559.79744 L 208.73692,538.97636 z"
     id="path2476"
     style="fill:#e9bd23" />
  <path
     d="M 129.49941,637.54779 L 129.38413,619.58385 L 156.12063,618.81142 C 159.46967,620.09582 155.39752,591.17386 160.91746,588.78235 L 225,589.46757 L 226.7365,619.40943 L 259.18729,619.35128 L 259.18729,637.43149 L 259.18729,658.36889 L 194.40099,658.36889 L 129.61468,658.36889 L 129.49941,637.54779 z"
     id="path2478"
     style="fill:#e9bd23" />
  <path
     d="M 207.14286,629.57439 C 207.14719,642.20259 200.2703,652.44319 191.78572,652.44319 C 183.30114,652.44319 176.42425,642.20259 176.42858,629.57439 C 176.42425,616.94618 183.30114,606.70558 191.78572,606.70558 C 200.2703,606.70558 207.14719,616.94618 207.14286,629.57439 z"
     id="path2482"
     style="fill:#ffffff;fill-opacity:1;fill-rule:nonzero;stroke:none;stroke-width:2.4000001;stroke-linecap:butt;stroke-linejoin:round;stroke-miterlimit:4;stroke-dasharray:none;stroke-opacity:1" />
  <path
     d="M 79.409333,204.06362 L 79.384134,167.61555 L 107.75873,167.20842 L 107.75873,203.86006 L 99.276587,238.27957 C 95.621214,240.55571 91.403237,241.55321 85.148818,237.92242 L 79.409333,204.06362 z"
     id="path2458"
     style="fill:#e9bd23" />
  <path
     d="M 46.48255,146.36007 C 31.19657,97.60075 15.039771,49.11095 2.0816682e-15,0.27428 L 129.21628,0.36006 L 194.43738,114.1248 L 257.78118,-0.00458 L 387.16524,0.14417 L 341.99998,143.41392 L 341.99998,673.86009 L 47.00744,673.86009 L 46.48255,146.36007 z M 196.43304,646.55949 C 198.24957,644.45379 198.67929,642.34239 197.79705,642.32629 L 193.63592,642.25019 L 193.61724,641.38349 L 190.03284,641.39849 L 190.04919,642.29789 L 184.50506,642.41499 C 184.10174,642.42349 184.93268,644.77599 186.07258,646.22519 C 188.69398,649.55769 193.15804,649.63609 196.43304,646.55949 z M 124.99998,614.86007 L 154.99998,614.86007 L 154.99998,583.86007 L 230.99998,583.86007 L 230.99998,614.86007 L 261.99998,614.86007 L 261.99998,644.86009 L 308.99998,644.86009 L 308.99998,628.86009 L 295.99998,628.86009 L 295.99998,292.86007 L 308.99998,292.86007 L 308.99998,275.86007 L 295.99998,275.86007 L 295.99998,225.08265 L 299.47058,224.43157 C 303.65168,223.6472 308.99998,219.38856 308.99998,216.84376 C 308.99998,214.42755 304.70718,211.12759 299.86948,209.82492 C 296.11078,208.8128 295.99998,208.65529 295.99998,204.32153 C 295.99998,200.03102 295.88508,199.86007 292.99998,199.86007 C 290.11498,199.86007 289.99998,200.03102 289.99998,204.32153 C 289.99998,208.70115 289.92448,208.80331 285.88508,209.89102 C 281.52198,211.06588 276.99998,214.7988 276.99998,217.22572 C 276.99998,219.44365 282.62848,223.69975 286.52948,224.43157 L 289.99998,225.08265 L 289.99998,275.86007 L 200.97878,275.86007 L 201.49998,189.36007 L 216.99998,188.77594 L 216.99998,171.86007 L 169.99998,171.86007 L 169.99998,188.86007 L 184.99998,188.86007 L 184.99998,275.86007 L 96,275.86007 L 96,257.86007 C 96,241.1934 96.14815,239.71192 98,237.86007 C 99.1,236.76007 100,234.59182 100,233.04173 C 100,229.39234 93.08147,169.60821 92.60388,169.13061 C 91.63304,168.15978 84.66849,232.4031 85.41998,235.39727 C 85.76934,236.78922 87.16776,238.43502 88.52759,239.05459 L 91,240.1811 L 91,275.86007 L 78,275.86007 L 78,292.86007 L 91,292.86007 L 91,628.86009 L 78,628.86009 L 78,644.86009 L 124.99998,644.86009 L 124.99998,614.86007 z M 96,292.86007 L 184.99998,292.86007 L 184.99998,567.86007 L 138.99998,567.86007 L 138.99998,597.86007 L 108,597.86007 L 108,628.86009 L 96,628.86009 L 96,292.86007 z M 126.79998,548.66007 C 127.58518,547.87488 127.99998,543.72674 127.99998,536.66007 L 127.99998,525.86007 L 133.94098,525.86007 C 137.20848,525.86007 140.16008,526.31007 140.49998,526.86007 C 141.44948,528.39629 143.99998,528.04581 143.99998,526.37912 C 143.99998,524.12639 140.85518,523.76241 124.08218,524.07382 C 113.97812,524.26141 108.53814,524.73987 108.29817,525.46207 C 108.04387,526.22739 110.23374,526.41634 115.46598,526.08056 L 122.99998,525.59706 L 122.99998,537.0619 C 122.99998,549.83774 123.64718,551.81292 126.79998,548.66007 z M 149.80878,548.59045 C 150.38838,547.89216 151.00598,545.37141 151.18128,542.98879 L 151.49998,538.65674 L 158.49998,544.27895 C 163.47718,548.27652 166.21998,549.82299 167.99148,549.63062 C 172.52308,549.13853 171.30408,546.48334 163.99588,540.92735 C 160.10948,537.97276 156.71858,535.21371 156.46048,534.79611 C 155.82858,533.77373 165.34488,526.86007 167.38398,526.86007 C 168.27278,526.86007 168.99998,526.18507 168.99998,525.36007 C 168.99998,522.68253 166.34288,523.75483 159.08828,529.36007 C 155.17308,532.38507 151.75158,534.86007 151.48488,534.86007 C 151.21818,534.86007 150.99998,532.63663 150.99998,529.91909 C 150.99998,524.71981 150.21128,523.45801 147.59028,524.46381 C 146.25498,524.97621 145.99998,527.06097 145.99998,537.46706 C 145.99998,547.32682 146.28158,549.86007 147.37758,549.86007 C 148.13518,549.86007 149.22928,549.28874 149.80878,548.59045 z M 138.67078,506.27563 C 139.08418,505.1983 137.13318,502.52907 132.57508,497.93571 L 125.87138,491.18022 L 129.47048,488.02015 C 131.49628,486.2415 134.18368,484.86007 135.61818,484.86007 C 137.21228,484.86007 138.01078,484.39196 137.75048,483.61007 C 136.84458,480.88937 133.65978,481.77753 129.42758,485.93114 L 125.08498,490.1931 L 120.56478,486.02659 C 115.97698,481.79768 113.70168,481.06037 111,482.92714 C 109.70262,483.82359 109.76251,484.12545 111.44339,485.16183 C 112.51225,485.82086 115.17138,487.97712 117.35248,489.95352 L 121.31818,493.54697 L 116.15908,498.51968 C 113.3216,501.25467 111,504.20532 111,505.07667 C 111,506.01746 113.33551,504.24858 116.74998,500.72171 L 122.49998,494.78246 L 128.97108,501.32127 C 135.60578,508.02529 137.60708,509.04754 138.67078,506.27563 z M 168.67078,506.27563 C 169.08418,505.1983 167.13318,502.52907 162.57508,497.93571 L 155.87138,491.18022 L 159.47048,488.02015 C 161.49628,486.2415 164.18368,484.86007 165.61818,484.86007 C 167.21228,484.86007 168.01078,484.39196 167.75048,483.61007 C 166.84458,480.88937 163.65978,481.77753 159.42758,485.93114 L 155.08498,490.1931 L 150.56478,486.02659 C 145.97698,481.79768 143.70168,481.06037 140.99998,482.92714 C 139.70258,483.82359 139.76248,484.12545 141.44338,485.16183 C 142.51228,485.82086 145.17138,487.97712 147.35248,489.95352 L 151.31818,493.54697 L 146.15908,498.51968 C 143.32158,501.25467 140.99998,504.20532 140.99998,505.07667 C 140.99998,506.01746 143.33548,504.24858 146.74998,500.72171 L 152.49998,494.78246 L 158.97108,501.32127 C 165.60578,508.02529 167.60708,509.04754 168.67078,506.27563 z M 126.79998,465.66007 C 127.58518,464.87488 127.99998,460.72674 127.99998,453.66007 L 127.99998,442.86007 L 133.94098,442.86007 C 137.20848,442.86007 140.16008,443.31007 140.49998,443.86007 C 141.44948,445.39629 143.99998,445.04581 143.99998,443.37912 C 143.99998,441.12639 140.85518,440.76241 124.08218,441.07382 C 113.97812,441.26141 108.53814,441.73987 108.29817,442.46207 C 108.04387,443.22739 110.23374,443.41634 115.46598,443.08056 L 122.99998,442.59706 L 122.99998,454.0619 C 122.99998,466.83774 123.64718,468.81292 126.79998,465.66007 z M 164.70148,464.90055 C 166.46228,463.82693 168.61548,461.57053 169.48638,459.88633 C 170.94518,457.06544 170.93828,456.77361 169.39908,456.18296 C 167.26418,455.36371 164.60358,457.02597 164.14238,459.46725 C 163.55348,462.5844 161.93418,463.86007 158.56608,463.86007 C 152.70518,463.86007 149.16188,458.4121 150.33228,451.20001 C 151.66728,442.97321 157.43278,440.20198 162.55558,445.32478 C 163.95088,446.72006 165.66678,447.54144 166.51018,447.21779 C 168.82368,446.33004 168.29098,445.00811 164.74998,442.84911 C 158.60978,439.10536 150.70188,441.02096 146.95948,447.15862 C 140.03088,458.52202 153.33808,471.82923 164.70148,464.90055 z M 131.71698,423.19011 C 144.20628,417.26353 139.08088,398.86007 124.94098,398.86007 C 117.70788,398.86007 111.01002,404.86795 111.00529,411.36007 C 110.99793,421.4758 122.03938,427.78242 131.71698,423.19011 z M 118.90118,419.75431 C 117.30558,418.04615 115.99998,415.79615 115.99998,414.75431 C 115.99998,413.03564 116.83418,412.86007 124.99998,412.86007 C 133.97618,412.86007 133.99998,412.8668 133.99998,415.40552 C 133.99998,419.22686 129.83128,422.86007 125.44668,422.86007 C 122.65938,422.86007 121.12018,422.12976 118.90118,419.75431 z M 115.99998,408.78315 C 115.99998,405.66956 121.30048,400.86007 124.73198,400.86007 C 127.93448,400.86007 129.89398,402.13849 132.35368,405.83258 C 135.39658,410.4025 134.72728,410.86007 124.99998,410.86007 C 116.55558,410.86007 115.99998,410.73186 115.99998,408.78315 z M 160.71698,423.19011 C 173.20628,417.26353 168.08088,398.86007 153.94098,398.86007 C 146.70788,398.86007 140.00998,404.86795 140.00528,411.36007 C 139.99798,421.4758 151.03938,427.78242 160.71698,423.19011 z M 147.90118,419.75431 C 146.30558,418.04615 144.99998,415.79615 144.99998,414.75431 C 144.99998,413.03564 145.83418,412.86007 153.99998,412.86007 C 162.97618,412.86007 162.99998,412.8668 162.99998,415.40552 C 162.99998,419.22686 158.83128,422.86007 154.44668,422.86007 C 151.65938,422.86007 150.12018,422.12976 147.90118,419.75431 z M 144.99998,408.78315 C 144.99998,405.66956 150.30048,400.86007 153.73198,400.86007 C 156.93448,400.86007 158.89398,402.13849 161.35368,405.83258 C 164.39658,410.4025 163.72728,410.86007 153.99998,410.86007 C 145.55558,410.86007 144.99998,410.73186 144.99998,408.78315 z M 125.79998,389.66007 C 126.45998,389.00007 126.99998,387.5184 126.99998,386.36747 C 126.99998,384.72355 127.99298,384.0093 131.63128,383.0362 C 134.40038,382.29558 137.61708,380.443 139.63128,378.4288 C 142.39128,375.66879 142.99998,374.29795 142.99998,370.84242 C 142.99998,367.3015 142.39788,366.02266 139.24738,362.87211 C 136.59908,360.22382 134.24468,358.90826 131.24738,358.40186 C 127.98198,357.85017 126.99998,357.24222 126.99998,355.77217 C 126.99998,354.72052 126.58678,353.86007 126.08178,353.86007 C 124.07858,353.86007 121.99998,355.14287 121.99998,356.37916 C 121.99998,357.12963 120.24248,357.98121 117.86438,358.38298 C 112.05186,359.365 107.03773,364.15986 106.3336,369.40953 C 105.87742,372.81066 106.22709,373.9765 108.5211,376.70278 C 111.31918,380.02811 117.71128,383.86007 120.46018,383.86007 C 121.55328,383.86007 121.99998,384.87538 121.99998,387.36007 C 121.99998,390.99193 123.53758,391.92254 125.79998,389.66007 z M 118.41518,380.43866 C 114.07971,378.55099 111,374.26756 111,370.12521 C 111,367.5178 111.8416,365.81847 114.4,363.26007 C 116.26998,361.39007 118.74498,359.86007 119.89998,359.86007 C 121.90608,359.86007 121.99998,360.35213 121.99998,370.86007 C 121.99998,376.91007 121.88748,381.84246 121.74998,381.82093 C 121.61248,381.7994 120.11188,381.17738 118.41518,380.43866 z M 126.99998,370.86007 C 126.99998,359.07611 127.20598,358.68724 131.96018,361.49561 C 137.78708,364.93766 139.57038,371.59396 135.91168,376.24519 C 134.09518,378.55455 129.17238,381.86007 127.54968,381.86007 C 127.24738,381.86007 126.99998,376.91007 126.99998,370.86007 z M 172.67078,382.27563 C 173.08418,381.1983 171.13318,378.52907 166.57508,373.93571 L 159.87138,367.18022 L 163.47048,364.02015 C 165.49628,362.2415 168.18368,360.86007 169.61818,360.86007 C 171.21228,360.86007 172.01078,360.39196 171.75048,359.61007 C 170.84458,356.88937 167.65978,357.77753 163.42758,361.93114 L 159.08498,366.1931 L 154.56478,362.02659 C 149.97698,357.79768 147.70168,357.06037 144.99998,358.92714 C 143.70258,359.82359 143.76248,360.12545 145.44338,361.16183 C 146.51228,361.82086 149.17138,363.97712 151.35248,365.95352 L 155.31818,369.54697 L 150.15908,374.51968 C 147.32158,377.25467 144.99998,380.20532 144.99998,381.07667 C 144.99998,382.01746 147.33548,380.24858 150.74998,376.72171 L 156.49998,370.78246 L 162.97108,377.32127 C 169.60578,384.02529 171.60708,385.04754 172.67078,382.27563 z M 124.28208,340.61007 C 125.57668,339.63769 126.00778,337.36118 126.22318,330.36007 L 126.49998,321.36007 L 136.55948,331.11007 C 142.09218,336.47257 147.15468,340.86007 147.80948,340.86007 C 148.66908,340.86007 148.99998,337.24702 148.99998,327.86007 C 148.99998,317.86007 148.69998,314.86007 147.69998,314.86007 C 144.81888,314.86007 143.99998,317.35392 143.99998,326.12769 L 143.99998,334.99531 L 135.07358,326.7632 C 130.16408,322.23554 125.92098,317.66597 125.64448,316.60861 C 125.32948,315.40385 124.46198,314.81653 123.32088,315.03544 C 121.68628,315.34903 121.47148,316.73887 121.22098,328.62242 C 121.06748,335.90313 121.31898,341.86007 121.77988,341.86007 C 122.24068,341.86007 123.36668,341.29757 124.28208,340.61007 z M 156.99868,339.86255 C 157.62428,338.69353 157.94998,333.40527 157.78388,327.11255 C 157.52008,317.12136 157.35838,316.36007 155.49998,316.36007 C 153.63318,316.36007 153.48108,317.12158 153.21548,327.79893 C 153.05898,334.0903 153.15738,339.8278 153.43408,340.54893 C 154.16808,342.46177 155.77298,342.15274 156.99868,339.86255 z M 277.99998,597.86007 L 246.99998,597.86007 L 246.99998,567.86007 L 200.99998,567.86007 L 200.99998,292.86007 L 289.99998,292.86007 L 289.99998,628.86009 L 277.99998,628.86009 L 277.99998,597.86007 z M 255.17128,549.20508 C 256.72108,547.80253 256.99998,545.95331 256.99998,537.08125 L 256.99998,526.61241 L 262.24998,527.2135 C 265.13748,527.54409 268.62498,527.93732 269.99998,528.08733 C 271.94398,528.29941 272.57208,527.85172 272.82428,526.07427 C 273.14618,523.80446 273.07628,523.79046 262.82428,524.07427 L 252.49998,524.36007 L 252.22098,537.61007 C 252.06748,544.89757 252.25708,550.86007 252.64228,550.86007 C 253.02738,550.86007 254.16548,550.11533 255.17128,549.20508 z M 247.78798,548.61007 C 248.35608,547.92257 248.97368,542.07198 249.16048,535.60876 L 249.49998,523.85745 L 235.24998,523.85876 C 226.41758,523.85957 220.99998,524.24025 220.99998,524.86007 C 220.99998,525.41007 221.43528,525.86007 221.96728,525.86007 C 222.51618,525.86007 223.05678,530.72557 223.21728,537.11007 C 223.48088,547.59915 223.63528,548.36007 225.49998,548.36007 C 227.36478,548.36007 227.51908,547.59915 227.78278,537.11007 L 228.06548,525.86007 L 236.03278,525.86007 L 243.99998,525.86007 L 243.99998,537.1934 C 243.99998,543.42674 244.29998,548.82674 244.66668,549.1934 C 245.66098,550.18775 246.63468,550.00578 247.78798,548.61007 z M 246.67078,506.27563 C 247.08418,505.1983 245.13318,502.52907 240.57508,497.93571 L 233.87138,491.18022 L 237.47048,488.02015 C 239.49628,486.2415 242.18368,484.86007 243.61818,484.86007 C 245.21228,484.86007 246.01078,484.39196 245.75048,483.61007 C 244.84458,480.88937 241.65978,481.77753 237.42758,485.93114 L 233.08498,490.1931 L 228.56478,486.02659 C 223.97698,481.79768 221.70168,481.06037 218.99998,482.92714 C 217.70258,483.82359 217.76248,484.12545 219.44338,485.16183 C 220.51228,485.82086 223.17138,487.97712 225.35248,489.95352 L 229.31818,493.54697 L 224.15908,498.51968 C 221.32158,501.25467 218.99998,504.20532 218.99998,505.07667 C 218.99998,506.01746 221.33548,504.24858 224.74998,500.72171 L 230.49998,494.78246 L 236.97108,501.32127 C 243.60578,508.02529 245.60708,509.04754 246.67078,506.27563 z M 275.67078,506.27563 C 276.08418,505.1983 274.13318,502.52907 269.57508,497.93571 L 262.87138,491.18022 L 266.47048,488.02015 C 268.49628,486.2415 271.18368,484.86007 272.61818,484.86007 C 274.21228,484.86007 275.01078,484.39196 274.75048,483.61007 C 273.84458,480.88937 270.65978,481.77753 266.42758,485.93114 L 262.08498,490.1931 L 257.56478,486.02659 C 252.97698,481.79768 250.70168,481.06037 247.99998,482.92714 C 246.70258,483.82359 246.76248,484.12545 248.44338,485.16183 C 249.51228,485.82086 252.17138,487.97712 254.35248,489.95352 L 258.31818,493.54697 L 253.15908,498.51968 C 250.32158,501.25467 247.99998,504.20532 247.99998,505.07667 C 247.99998,506.01746 250.33548,504.24858 253.74998,500.72171 L 259.49998,494.78246 L 265.97108,501.32127 C 272.60578,508.02529 274.60708,509.04754 275.67078,506.27563 z M 266.79998,472.66007 C 267.45998,472.00007 267.99998,470.5184 267.99998,469.36747 C 267.99998,467.72355 268.99298,467.0093 272.63128,466.0362 C 275.40038,465.29558 278.61708,463.443 280.63128,461.4288 C 283.39128,458.66879 283.99998,457.29795 283.99998,453.84242 C 283.99998,450.3015 283.39788,449.02266 280.24738,445.87211 C 277.59908,443.22382 275.24468,441.90826 272.24738,441.40186 C 268.98198,440.85017 267.99998,440.24222 267.99998,438.77217 C 267.99998,437.72052 267.58678,436.86007 267.08178,436.86007 C 265.07858,436.86007 262.99998,438.14287 262.99998,439.37916 C 262.99998,440.12963 261.24248,440.98121 258.86438,441.38298 C 253.05188,442.365 248.03778,447.15986 247.33358,452.40953 C 246.87738,455.81066 247.22708,456.9765 249.52108,459.70278 C 252.31918,463.02811 258.71128,466.86007 261.46018,466.86007 C 262.55328,466.86007 262.99998,467.87538 262.99998,470.36007 C 262.99998,473.99193 264.53758,474.92254 266.79998,472.66007 z M 259.41518,463.43866 C 255.07968,461.55099 251.99998,457.26756 251.99998,453.12521 C 251.99998,450.5178 252.84158,448.81847 255.39998,446.26007 C 257.26998,444.39007 259.74498,442.86007 260.89998,442.86007 C 262.90608,442.86007 262.99998,443.35213 262.99998,453.86007 C 262.99998,459.91007 262.88748,464.84246 262.74998,464.82093 C 262.61248,464.7994 261.11188,464.17738 259.41518,463.43866 z M 267.99998,453.86007 C 267.99998,442.07611 268.20598,441.68724 272.96018,444.49561 C 278.78708,447.93766 280.57038,454.59396 276.91168,459.24519 C 275.09518,461.55455 270.17238,464.86007 268.54968,464.86007 C 268.24738,464.86007 267.99998,459.91007 267.99998,453.86007 z M 247.99998,469.36007 C 247.99998,466.03974 247.82378,465.86007 244.56698,465.86007 C 241.73628,465.86007 240.52808,465.1143 237.68138,461.61007 C 235.78238,459.27257 232.37228,453.64757 230.10318,449.11007 C 227.20008,443.3045 225.43778,440.86007 224.15548,440.86007 C 221.30748,440.86007 221.06918,441.70692 222.62918,446.28524 C 224.07568,450.53027 224.06178,450.59194 219.95468,458.20621 C 216.24858,465.07707 215.52508,465.86007 212.88178,465.86007 C 209.79528,465.86007 207.96768,468.22775 209.70958,469.96967 C 210.34318,470.60322 211.13318,470.40452 211.96488,469.40245 C 213.01318,468.13928 215.93398,467.86007 228.09938,467.86007 C 242.84068,467.86007 242.96638,467.87912 244.59198,470.36007 C 246.85918,473.82032 247.99998,473.48558 247.99998,469.36007 z M 218.99998,465.33155 C 218.99998,464.20858 225.15338,452.68015 225.54418,453.07096 C 225.77148,453.29826 227.75728,456.26879 229.95698,459.67215 L 233.95638,465.86007 L 226.47818,465.86007 C 222.36518,465.86007 218.99998,465.62224 218.99998,465.33155 z M 239.73908,423.1796 C 241.68678,422.25533 244.16858,419.99382 245.25408,418.154 L 247.22778,414.80888 L 248.86388,417.99967 C 252.02588,424.16622 260.65408,426.54165 267.71698,423.19011 C 277.11538,418.73027 277.34978,405.62996 268.11548,400.91898 C 260.78858,397.18105 252.50688,399.1918 248.70758,405.63114 L 246.69558,409.04126 L 245.42008,406.00789 C 243.93288,402.47075 237.62908,398.86007 232.94098,398.86007 C 225.70788,398.86007 219.00998,404.86795 219.00528,411.36007 C 218.99788,421.48771 230.03978,427.78223 239.73908,423.1796 z M 226.90118,419.75431 C 225.30558,418.04615 223.99998,415.79615 223.99998,414.75431 C 223.99998,413.03564 224.83418,412.86007 232.99998,412.86007 C 241.97618,412.86007 241.99998,412.8668 241.99998,415.40552 C 241.99998,419.22686 237.83128,422.86007 233.44668,422.86007 C 230.65938,422.86007 229.12018,422.12976 226.90118,419.75431 z M 254.90118,419.75431 C 253.30558,418.04615 251.99998,415.79615 251.99998,414.75431 C 251.99998,413.03564 252.83418,412.86007 260.99998,412.86007 C 269.97618,412.86007 269.99998,412.8668 269.99998,415.40552 C 269.99998,419.22686 265.83128,422.86007 261.44668,422.86007 C 258.65938,422.86007 257.12018,422.12976 254.90118,419.75431 z M 223.99998,408.78315 C 223.99998,405.66956 229.30048,400.86007 232.73198,400.86007 C 235.93448,400.86007 237.89398,402.13849 240.35368,405.83258 C 243.39658,410.4025 242.72728,410.86007 232.99998,410.86007 C 224.55558,410.86007 223.99998,410.73186 223.99998,408.78315 z M 251.99998,408.78315 C 251.99998,405.66956 257.30048,400.86007 260.73198,400.86007 C 263.93448,400.86007 265.89398,402.13849 268.35368,405.83258 C 271.39658,410.4025 270.72728,410.86007 260.99998,410.86007 C 252.55558,410.86007 251.99998,410.73186 251.99998,408.78315 z M 232.79998,389.66007 C 233.45998,389.00007 233.99998,387.5184 233.99998,386.36747 C 233.99998,384.72355 234.99298,384.0093 238.63128,383.0362 C 241.40038,382.29558 244.61708,380.443 246.63128,378.4288 C 249.39128,375.66879 249.99998,374.29795 249.99998,370.84242 C 249.99998,367.3015 249.39788,366.02266 246.24738,362.87211 C 243.59908,360.22382 241.24468,358.90826 238.24738,358.40186 C 234.98198,357.85017 233.99998,357.24222 233.99998,355.77217 C 233.99998,354.72052 233.58678,353.86007 233.08178,353.86007 C 231.07858,353.86007 228.99998,355.14287 228.99998,356.37916 C 228.99998,357.12963 227.24248,357.98121 224.86438,358.38298 C 219.05188,359.365 214.03778,364.15986 213.33358,369.40953 C 212.87738,372.81066 213.22708,373.9765 215.52108,376.70278 C 218.31918,380.02811 224.71128,383.86007 227.46018,383.86007 C 228.55328,383.86007 228.99998,384.87538 228.99998,387.36007 C 228.99998,390.99193 230.53758,391.92254 232.79998,389.66007 z M 225.41518,380.43866 C 221.07968,378.55099 217.99998,374.26756 217.99998,370.12521 C 217.99998,367.5178 218.84158,365.81847 221.39998,363.26007 C 223.26998,361.39007 225.74498,359.86007 226.89998,359.86007 C 228.90608,359.86007 228.99998,360.35213 228.99998,370.86007 C 228.99998,376.91007 228.88748,381.84246 228.74998,381.82093 C 228.61248,381.7994 227.11188,381.17738 225.41518,380.43866 z M 233.99998,370.86007 C 233.99998,359.07611 234.20598,358.68724 238.96018,361.49561 C 244.78708,364.93766 246.57038,371.59396 242.91168,376.24519 C 241.09518,378.55455 236.17238,381.86007 234.54968,381.86007 C 234.24738,381.86007 233.99998,376.91007 233.99998,370.86007 z M 277.78798,382.61007 C 278.35608,381.92257 278.97368,376.07198 279.16048,369.60876 L 279.49998,357.85745 L 265.24998,357.85876 C 256.41758,357.85957 250.99998,358.24025 250.99998,358.86007 C 250.99998,359.41007 251.43528,359.86007 251.96728,359.86007 C 252.51618,359.86007 253.05678,364.72557 253.21728,371.11007 C 253.48088,381.59915 253.63528,382.36007 255.49998,382.36007 C 257.36478,382.36007 257.51908,381.59915 257.78278,371.11007 L 258.06548,359.86007 L 266.03278,359.86007 L 273.99998,359.86007 L 273.99998,371.1934 C 273.99998,377.42674 274.29998,382.82674 274.66668,383.1934 C 275.66098,384.18775 276.63468,384.00578 277.78798,382.61007 z M 222.79998,340.66007 C 223.45998,340.00007 223.99998,337.75007 223.99998,335.66007 C 223.99998,333.57007 224.47528,331.86007 225.05608,331.86007 C 225.63698,331.86007 228.89298,334.11007 232.29168,336.86007 C 237.91078,341.40671 241.63508,342.89164 243.28398,341.24281 C 243.62338,340.90332 247.53518,339.16031 251.97678,337.36945 C 259.75098,334.23484 260.13528,334.17812 262.27618,335.84926 C 265.66428,338.494 272.70198,341.86647 274.71018,341.80762 C 276.16918,341.76486 276.03788,341.44298 273.99998,340.06637 C 268.17118,336.12886 261.02868,328.39102 258.03028,322.76553 C 254.68418,316.48762 252.65588,314.8042 250.74278,316.71727 C 249.91248,317.54763 250.06168,318.76622 251.31588,321.39629 L 253.01178,324.95253 L 249.01068,330.84428 C 246.81018,334.08475 244.61948,336.97722 244.14248,337.272 C 243.40598,337.72722 228.99998,327.35858 228.99998,326.37321 C 228.99998,325.4462 238.97938,318.86007 240.38398,318.86007 C 241.27278,318.86007 241.99998,318.18507 241.99998,317.36007 C 241.99998,314.68253 239.34288,315.75483 232.08828,321.36007 C 228.17308,324.38507 224.75158,326.86007 224.48488,326.86007 C 224.21818,326.86007 223.99998,324.63663 223.99998,321.91909 C 223.99998,316.71981 223.21128,315.45801 220.59028,316.46381 C 219.25498,316.97621 218.99998,319.06097 218.99998,329.46706 C 218.99998,342.07755 219.60388,343.85622 222.79998,340.66007 z M 250.02228,333.11007 C 250.03448,332.69757 250.89208,331.25725 251.92798,329.90936 C 253.53558,327.81754 254.04488,327.65242 255.40568,328.78181 C 257.59758,330.60094 257.41558,331.34971 254.45298,332.69955 C 251.51398,334.03864 249.99048,334.17979 250.02228,333.11007 z M 275.99998,321.36007 C 277.02628,320.12346 276.93618,319.86007 275.48648,319.86007 C 273.99028,319.86007 273.81588,319.21987 274.31688,315.56486 C 274.64068,313.20249 275.23608,310.38999 275.64008,309.31486 C 276.25848,307.66885 276.13728,307.5525 274.87308,308.5783 C 272.60178,310.4212 268.64578,319.49449 269.33288,321.28502 C 270.10008,323.28446 274.36308,323.33245 275.99998,321.36007 z M 191.36853,638.76749 L 191.4119,636.12519 L 192.34702,636.12529 L 192.35229,638.76739 L 195.04174,638.80399 L 195.16374,634.99579 L 196.2061,635.02739 L 196.14788,638.78819 L 198.3055,638.72989 C 199.87732,638.68739 199.89218,632.36269 200.99438,631.36519 C 208.02058,625.00659 203.73848,611.49899 194.01978,609.36442 C 187.57088,607.948 178.99998,615.3686 178.99998,622.36839 C 178.99998,624.14609 180.11658,627.22639 181.49998,629.26489 C 182.87498,631.29109 183.99998,634.27889 183.99998,635.90449 C 183.99998,638.61559 184.2904,638.93699 187.49998,638.86009 L 191.36853,638.76749 z M 183.55978,624.92619 C 182.05598,623.26449 181.95198,622.62289 182.98448,621.37883 C 184.58248,619.45329 188.38728,619.41685 189.96018,621.31203 C 193.36408,625.41359 187.16758,628.91269 183.55978,624.92619 z M 193.24998,626.19779 C 189.94288,624.86339 194.23278,619.47141 198.15728,620.02971 C 200.79948,620.40558 201.75238,623.24849 199.96018,625.40809 C 198.77698,626.83369 195.71808,627.19369 193.24998,626.19779 z M 254.79208,629.52979 C 255.03468,623.15969 254.82288,621.86009 253.54208,621.86009 C 252.69398,621.86009 251.99998,622.31639 251.99998,622.87409 C 251.99998,624.18769 247.70208,630.83149 246.84178,630.84769 C 246.47988,630.85449 244.90488,628.83589 243.34178,626.36189 C 239.18108,619.77605 237.99998,620.43204 237.99998,629.32869 C 237.99998,635.44399 238.26288,636.69639 239.45078,636.24059 C 240.39868,635.87689 241.00528,633.89449 241.20078,630.52199 L 241.49998,625.36009 L 243.83158,629.11009 C 245.11388,631.17259 246.47938,632.86009 246.86598,632.86009 C 247.25248,632.86009 248.45328,631.39759 249.53438,629.61009 L 251.49998,626.36009 L 251.80188,632.17609 C 252.25888,640.98049 254.42918,639.05979 254.79208,629.52979 z M 147.17298,633.27609 C 144.87008,631.30489 141.82128,627.70489 140.39798,625.27609 C 137.37558,620.11885 135.47258,619.47308 136.35908,623.90549 C 136.81928,626.20649 136.32508,627.92279 134.33778,630.92589 C 132.89098,633.11199 131.95458,635.14799 132.25678,635.45019 C 132.55898,635.75239 134.70118,635.03289 137.01718,633.85129 L 141.22818,631.70299 L 144.85218,634.28149 C 150.26758,638.13459 151.98148,637.39209 147.17298,633.27609 z M 135.03178,632.11849 C 135.07598,631.06499 137.58098,627.86009 138.36028,627.86009 C 139.80208,627.86009 138.86148,630.46549 136.99998,631.62799 C 135.89998,632.31499 135.01428,632.53569 135.03178,632.11849 z M 181.99998,605.36007 C 181.99998,603.6063 181.45508,602.86007 180.17428,602.86007 C 177.94658,602.86007 175.21028,599.89979 171.62398,593.61007 C 168.60598,588.31683 166.44588,587.30934 167.33598,591.61007 C 168.15978,595.59024 164.22808,602.86007 161.25168,602.86007 C 159.59848,602.86007 158.99998,603.44476 158.99998,605.06007 C 158.99998,606.77118 159.26668,606.9934 160.19998,606.06007 C 162.08768,604.17244 179.62228,604.43335 180.36168,606.36007 C 181.23238,608.62919 181.99998,608.16066 181.99998,605.36007 z M 165.00658,602.11007 C 165.01018,601.69757 165.84198,600.10312 166.85498,598.56685 L 168.69668,595.77362 L 171.39928,599.31685 L 174.10178,602.86007 L 169.55088,602.86007 C 167.04788,602.86007 165.00298,602.52257 165.00658,602.11007 z M 223.17298,602.27611 C 220.87008,600.30494 217.82128,596.70494 216.39798,594.27611 C 213.37558,589.11885 211.47258,588.47308 212.35908,592.90554 C 212.81928,595.20645 212.32508,596.92281 210.33778,599.92587 C 208.89098,602.11204 207.95458,604.14797 208.25678,604.45016 C 208.55898,604.75235 210.70118,604.03286 213.01718,602.8513 L 217.22818,600.70301 L 220.85218,603.28154 C 226.26758,607.13462 227.98148,606.39207 223.17298,602.27611 z M 211.03178,601.11854 C 211.07598,600.065 213.58098,596.86007 214.36028,596.86007 C 215.80208,596.86007 214.86148,599.46549 212.99998,600.628 C 211.89998,601.31496 211.01428,601.5357 211.03178,601.11854 z M 127.99868,257.86255 C 128.62428,256.69353 128.94998,251.40527 128.78388,245.11255 C 128.52008,235.12136 128.35838,234.36007 126.49998,234.36007 C 124.63318,234.36007 124.48108,235.12158 124.21548,245.79893 C 124.05898,252.0903 124.15738,257.8278 124.43408,258.54893 C 125.16808,260.46177 126.77298,260.15274 127.99868,257.86255 z M 151.70148,257.90055 C 153.46228,256.82693 155.61548,254.57053 156.48638,252.88633 C 157.94518,250.06544 157.93828,249.77361 156.39908,249.18296 C 154.26418,248.36371 151.60358,250.02597 151.14238,252.46725 C 150.55348,255.5844 148.93418,256.86007 145.56608,256.86007 C 139.70518,256.86007 136.16188,251.4121 137.33228,244.20001 C 138.66728,235.97321 144.43278,233.20198 149.55558,238.32478 C 150.95088,239.72006 152.66678,240.54144 153.51018,240.21779 C 155.82368,239.33004 155.29098,238.00811 151.74998,235.84911 C 145.60978,232.10536 137.70188,234.02096 133.95948,240.15862 C 127.03088,251.52202 140.33808,264.82923 151.70148,257.90055 z M 247.67078,258.27563 C 248.08418,257.1983 246.13318,254.52907 241.57508,249.93571 L 234.87138,243.18022 L 238.47048,240.02015 C 240.49628,238.2415 243.18368,236.86007 244.61818,236.86007 C 246.21228,236.86007 247.01078,236.39196 246.75048,235.61007 C 245.84458,232.88937 242.65978,233.77753 238.42758,237.93114 L 234.08498,242.1931 L 229.56478,238.02659 C 224.97698,233.79768 222.70168,233.06037 219.99998,234.92714 C 218.70258,235.82359 218.76248,236.12545 220.44338,237.16183 C 221.51228,237.82086 224.17138,239.97712 226.35248,241.95352 L 230.31818,245.54697 L 225.15908,250.51968 C 222.32158,253.25467 219.99998,256.20532 219.99998,257.07667 C 219.99998,258.01746 222.33548,256.24858 225.74998,252.72171 L 231.49998,246.78246 L 237.97108,253.32127 C 244.60578,260.02529 246.60708,261.04754 247.67078,258.27563 z M 267.70148,257.90055 C 269.46228,256.82693 271.61548,254.57053 272.48638,252.88633 C 273.94518,250.06544 273.93828,249.77361 272.39908,249.18296 C 270.26418,248.36371 267.60358,250.02597 267.14238,252.46725 C 266.55348,255.5844 264.93418,256.86007 261.56608,256.86007 C 255.70518,256.86007 252.16188,251.4121 253.33228,244.20001 C 254.66728,235.97321 260.43278,233.20198 265.55558,238.32478 C 266.95088,239.72006 268.66678,240.54144 269.51018,240.21779 C 271.82368,239.33004 271.29098,238.00811 267.74998,235.84911 C 261.60978,232.10536 253.70188,234.02096 249.95948,240.15862 C 243.03088,251.52202 256.33808,264.82923 267.70148,257.90055 z M 137.49998,229.76617 C 147.65968,230.32748 148.80468,230.21809 151.54198,228.42451 C 154.42818,226.53339 154.42888,226.53064 152.20618,225.53885 C 150.65708,224.84765 148.81298,224.93169 146.13498,225.81552 C 143.26108,226.764 141.76318,226.80368 140.21008,225.9725 C 137.14528,224.33229 133.52268,224.61621 130.95168,226.69812 C 128.20128,228.92524 129.16268,231.39092 132.36288,230.31736 C 133.53828,229.92304 135.84998,229.675 137.49998,229.76617 z M 245.74998,229.74459 C 246.98748,229.8081 250.01248,229.97257 252.47218,230.11007 C 255.95528,230.30478 257.42888,229.87565 259.13468,228.16988 L 261.32478,225.9797 L 258.75558,225.33485 C 257.34248,224.98019 255.21248,225.21117 254.02228,225.84816 C 252.44238,226.6937 251.02738,226.71665 248.77988,225.93319 C 244.45018,224.42385 242.55778,224.58782 239.95168,226.69812 C 237.20698,228.92064 238.16348,231.38352 241.36288,230.33171 C 242.53828,229.94528 244.51248,229.68108 245.74998,229.74459 z M 92,102.36007 C 92,99.00968 92.15353,98.86007 95.59192,98.86007 L 99.18385,98.86007 L 98.96288,94.11007 C 98.84134,91.49757 98.80998,88.01007 98.89319,86.36007 L 99.04447,83.36007 L 101.03318,85.86007 L 103.02188,88.36007 L 102.14639,85.86007 C 100.83334,82.11063 97.81572,82.6323 96.737,86.7952 C 96.06278,89.39713 95.6266,89.88224 94.93875,88.7952 C 93.87915,87.1207 93.76717,82.90186 94.64185,77.61007 L 95.26168,73.86007 L 102.57183,73.86007 C 110.408,73.86007 113.19386,75.22592 107.52633,76.28915 C 105.62544,76.64576 103.79063,77.38982 103.44899,77.94261 C 102.59796,79.31961 104.59772,81.53057 107.28276,82.18128 L 109.5,82.71861 L 107.25,81.16737 C 104.12181,79.01067 104.43113,78.14529 108.5,77.67028 C 110.425,77.44554 112,77.62131 112,78.06087 C 112,78.50043 113.8,78.86007 115.99998,78.86007 C 119.90478,78.86007 119.99998,78.77674 119.99998,75.36007 C 119.99998,72.02674 120.16668,71.86007 123.49998,71.86007 C 126.91668,71.86007 126.99998,71.76483 126.99998,67.86007 C 126.99998,63.95531 126.91668,63.86007 123.49998,63.86007 C 120.15258,63.86007 119.99998,63.70419 119.99998,60.28454 C 119.99998,56.71831 119.98898,56.70945 115.74998,56.87728 C 108.1034,57.18002 105,56.87706 105,55.82785 C 105,55.26012 106.0125,54.38865 107.25,53.89123 C 109.45875,53.00342 109.46099,52.98568 107.37244,52.92346 C 106.20229,52.88859 104.68469,53.53507 104,54.36007 C 102.33233,56.36949 104.33722,58.86007 107.62244,58.86007 C 108.9301,58.86007 110,59.31007 110,59.86007 C 110,60.43627 106.87695,60.86007 102.63084,60.86007 L 95.26168,60.86007 L 94.64185,57.11007 C 93.76717,51.81828 93.87915,47.59944 94.93875,45.92494 C 95.6266,44.8379 96.06278,45.32301 96.737,47.92494 C 97.78708,51.97733 100.80719,52.61357 102.12197,49.05938 C 102.66485,47.59186 102.6158,46.97949 101.98653,47.3684 C 101.44394,47.70374 101,48.62655 101,49.41909 C 101,50.21163 100.55,50.86007 100,50.86007 C 98.91164,50.86007 98.62009,47.97865 98.96288,40.61007 L 99.18385,35.86007 L 95.59192,35.86007 C 92.15353,35.86007 92,35.71046 92,32.36007 C 92,28.9434 91.90476,28.86007 88,28.86007 C 84.09524,28.86007 84,28.9434 84,32.36007 C 84,35.71046 83.84647,35.86007 80.40808,35.86007 L 76.81615,35.86007 L 77.03712,40.61007 C 77.37082,47.78331 77.09452,50.86007 76.11663,50.86007 C 75.63078,50.86007 74.97363,49.86722 74.6563,48.65374 C 74.33896,47.44026 73.80002,46.72672 73.45864,47.06809 C 72.35236,48.17438 75.08573,51.99021 76.7543,51.66887 C 77.64495,51.49735 78.77832,49.79536 79.27291,47.88667 C 80.76571,42.12579 82.35161,46.75246 81.52617,54.46027 L 80.84081,60.86007 L 73.42041,60.86007 C 69.14013,60.86007 66,60.43689 66,59.86007 C 66,59.31007 67.0699,58.86007 68.37756,58.86007 C 69.68521,58.86007 71.35573,58.13637 72.08981,57.25186 C 73.22382,55.88546 73.13831,55.43438 71.52112,54.25186 C 70.47426,53.48637 68.91625,52.88859 68.05887,52.92346 C 67.09089,52.96282 67.35286,53.32965 68.75,53.89123 C 69.9875,54.38865 71,55.26012 71,55.82785 C 71,56.87706 67.8966,57.18002 60.25,56.87728 C 56.01105,56.70945 56,56.71831 56,60.28454 C 56,63.70419 55.84742,63.86007 52.5,63.86007 C 49.08333,63.86007 49,63.95531 49,67.86007 C 49,71.76483 49.08333,71.86007 52.5,71.86007 C 55.83333,71.86007 56,72.02674 56,75.36007 C 56,78.77674 56.09524,78.86007 60,78.86007 C 62.2,78.86007 64,78.50043 64,78.06087 C 64,77.62131 65.575,77.44554 67.5,77.67028 C 71.56887,78.14529 71.87819,79.01067 68.75,81.16737 L 66.5,82.71861 L 68.71724,82.18128 C 71.40228,81.53057 73.40204,79.31961 72.55101,77.94261 C 72.20937,77.38982 70.37457,76.64576 68.47367,76.28915 C 62.802,75.22514 65.59434,73.86007 73.44252,73.86007 L 80.76701,73.86007 L 81.45829,80.31522 C 82.4055,89.16006 80.10902,93.52336 78.79707,85.37155 C 78.35132,82.60194 75.36978,82.30062 73.98645,84.88539 C 73.35478,86.06567 73.11727,87.31067 73.45864,87.65205 C 73.80002,87.99342 74.33896,87.27988 74.6563,86.0664 C 74.97363,84.85292 75.63078,83.86007 76.11663,83.86007 C 77.09452,83.86007 77.37082,86.93683 77.03712,94.11007 L 76.81615,98.86007 L 80.40808,98.86007 C 83.84647,98.86007 84,99.00968 84,102.36007 C 84,105.77674 84.09524,105.86007 88,105.86007 C 91.90476,105.86007 92,105.77674 92,102.36007 z M 290.99998,102.36007 C 290.99998,99.01265 291.15588,98.86007 294.57558,98.86007 C 298.14178,98.86007 298.15058,98.84902 297.98278,94.61007 C 297.56108,83.95949 298.44568,81.27098 300.77948,86.11007 C 301.44408,87.48807 301.88498,87.77873 301.91698,86.86007 C 302.09498,81.76302 296.67808,81.53444 296.18668,86.61826 C 296.01428,88.40126 295.43288,89.86007 294.89458,89.86007 C 294.31538,89.86007 294.03508,86.6966 294.20798,82.11007 L 294.49998,74.36007 L 301.40088,74.06094 C 309.03598,73.72998 312.38268,75.1905 306.51258,76.29173 C 303.55868,76.84588 302.93448,77.36533 303.18788,79.05818 C 303.48378,81.03398 307.99998,83.74282 307.99998,81.94448 C 307.99998,81.47635 307.09998,80.85798 305.99998,80.57032 C 304.89998,80.28266 304.78123,80.102728 304.78123,79.454308 C 304.78123,78.591378 306.01038,77.87781 311.49998,78.39224 L 318.99998,79.09505 L 318.99998,75.47756 C 318.99998,72.00995 319.14498,71.86007 322.49998,71.86007 C 325.91668,71.86007 325.99998,71.76483 325.99998,67.86007 C 325.99998,63.95531 325.91668,63.86007 322.49998,63.86007 C 319.15258,63.86007 318.99998,63.70419 318.99998,60.28454 C 318.99998,56.71831 318.98898,56.70945 314.74998,56.87728 C 304.09938,57.29896 301.41088,56.41437 306.24998,54.08056 C 307.62798,53.41598 307.91868,52.97514 306.99998,52.94306 C 301.88828,52.7646 301.67768,58.18257 306.77718,58.67484 C 312.84108,59.26021 308.93438,60.86007 301.44098,60.86007 L 293.99998,60.86007 L 293.99998,52.66007 C 293.99998,47.67387 294.35878,44.8324 294.91528,45.41007 C 295.41878,45.93257 295.98128,47.48047 296.16528,48.84985 C 296.76158,53.28523 302.07448,52.37094 301.91698,47.86007 C 301.88498,46.94141 301.44408,47.23207 300.77948,48.61007 C 298.44568,53.44916 297.56108,50.76065 297.98278,40.11007 C 298.15058,35.87112 298.14178,35.86007 294.57558,35.86007 C 291.15588,35.86007 290.99998,35.70749 290.99998,32.36007 C 290.99998,28.9434 290.90478,28.86007 286.99998,28.86007 C 283.09528,28.86007 282.99998,28.9434 282.99998,32.36007 C 282.99998,35.71505 282.85008,35.86007 279.38248,35.86007 L 275.76498,35.86007 L 276.46788,43.36007 C 277.20748,51.25264 276.48188,52.60185 273.64478,48.61007 L 272.04558,46.36007 L 272.88168,48.86007 C 273.34148,50.23507 274.62658,51.49671 275.73748,51.66372 C 277.35848,51.90741 277.89378,51.24 278.44838,48.28347 C 279.56948,42.30782 281.13328,45.75097 280.79918,53.4592 L 280.49998,60.36007 L 272.74998,60.65213 C 267.85458,60.83662 264.99998,60.56037 264.99998,59.90213 C 264.99998,59.329 265.86318,58.86007 266.91818,58.86007 C 270.12868,58.86007 271.99998,57.74075 271.99998,55.82047 C 271.99998,54.10647 268.44218,52.08456 267.34928,53.17746 C 267.07428,53.45246 267.78318,53.97387 268.92468,54.33615 C 270.06608,54.69843 270.99998,55.41452 270.99998,55.92746 C 270.99998,56.86826 267.06218,57.18658 259.24998,56.87728 C 255.01108,56.70945 254.99998,56.71831 254.99998,60.28454 C 254.99998,63.70419 254.84738,63.86007 251.49998,63.86007 C 248.08338,63.86007 247.99998,63.95531 247.99998,67.86007 C 247.99998,71.76483 248.08338,71.86007 251.49998,71.86007 C 254.83338,71.86007 254.99998,72.02674 254.99998,75.36007 C 254.99998,78.77674 255.09528,78.86007 258.99998,78.86007 C 261.19998,78.86007 262.99998,78.50043 262.99998,78.06087 C 262.99998,76.99803 269.86348,77.83009 270.57348,78.97902 C 270.87878,79.4729 270.08708,80.29466 268.81428,80.80514 C 267.54138,81.31563 267.02568,81.76182 267.66818,81.79668 C 272.91838,82.08155 273.65498,77.26116 268.50878,76.29573 C 262.95178,75.25323 265.49318,73.86007 272.95208,73.86007 C 280.85348,73.86007 280.99998,74.02435 280.99998,82.88284 C 280.99998,89.57086 279.43148,91.67669 278.42918,86.33421 C 277.89278,83.47523 277.34988,82.81403 275.73748,83.05642 C 273.80518,83.34692 271.15398,87.86007 272.91558,87.86007 C 273.38368,87.86007 274.01398,86.91479 274.31608,85.75945 C 274.63568,84.53706 275.33318,83.94795 275.98428,84.35036 C 276.74498,84.82052 276.88528,87.25355 276.42238,91.95097 L 275.74158,98.86007 L 279.37078,98.86007 C 282.85178,98.86007 282.99998,99.003 282.99998,102.36007 C 282.99998,105.77674 283.09528,105.86007 286.99998,105.86007 C 290.90478,105.86007 290.99998,105.77674 290.99998,102.36007 z"
     id="path2420"
     style="fill:#1e1915" />
</svg>
