<?xml version="1.0" encoding="utf-8"?>
<!-- Generator: Adobe Illustrator 15.1.0, SVG Export Plug-In . SVG Version: 6.00 Build 0)  -->
<!DOCTYPE svg PUBLIC "-//W3C//DTD SVG 1.1//EN" "http://www.w3.org/Graphics/SVG/1.1/DTD/svg11.dtd">
<svg version="1.1" xmlns="http://www.w3.org/2000/svg" xmlns:xlink="http://www.w3.org/1999/xlink" x="0px" y="0px" width="347px"
	 height="230px" viewBox="0 0 347 230" enable-background="new 0 0 347 230" xml:space="preserve">
<g id="razor">
	<linearGradient id="SVGID_1_" gradientUnits="userSpaceOnUse" x1="173.5005" y1="228.4023" x2="173.5005" y2="0.7408">
		<stop  offset="0" style="stop-color:#ccc"/>
		<stop  offset="0.5" style="stop-color:#231F20"/>
		<stop  offset="1" style="stop-color:#ccc"/>
	</linearGradient>
	<path fill="url(#SVGID_1_)" d="M341.91,48c-4.18,0-6.45,0.2-21.91,0c-15.86-13.62,0.04-18.66,0.04-24.58S320,0,320,0
		S178.07,0.35,173.54,0C169.01,0.35,27.08,0,27.08,0s-0.04,17.5-0.04,23.42S42.93,34.38,27.08,48C11.62,48.2,9.3,48,5.12,48
		C0.94,48,0,52.23,0,53.67C0,54.69,0,115,0,115s0,60.31,0,61.33C0,177.77,0.94,182,5.12,182c4.18,0,6.5-0.2,21.96,0
		c15.85,13.62-0.04,18.66-0.04,24.58S27.08,230,27.08,230s141.93-0.35,146.46,0c4.53-0.35,146.46,0,146.46,0s0.04-17.5,0.04-23.42
		S304.14,195.62,320,182c15.46-0.2,17.73,0,21.91,0s5.09-4.23,5.09-5.67c0-1.021,0-61.33,0-61.33s0-60.31,0-61.33
		C347,52.23,346.09,48,341.91,48z M299.36,123c-3.91,0-7.03,0-7.03,0s-12.811,21-18.26,21c-5.431,0-15.66-17.17-17.75-21
		c-2.79,0-8.32,0-8.32,0s0,10.11,0,16c0,6.61-18,6.79-18,0.51c0-5.46,0-16.51,0-16.51s-34.26,0-36.7,0c0,4.72-1.72,21-19.5,21
		c-17.78,0-20.02-16.28-20.02-21c-2.44,0-36.78,0-36.78,0s0,11.05,0,16.51c0,6.28-18,6.101-18-0.51c0-5.89,0-16,0-16s-5.46,0-8.24,0
		c-2.09,3.83-12.33,21-17.76,21c-5.44,0-18.25-21-18.25-21s-3.12,0-7.03,0c0.04,24.8-18.08,33.95-18.62-8
		c0.54-41.95,18.66-32.8,18.62-8c3.91,0,7.03,0,7.03,0S67.56,86,73,86c5.43,0,15.67,17.17,17.76,21c2.78,0,8.24,0,8.24,0
		s0-10.11,0-16c0-6.61,18-6.79,18-0.51c0,5.46,0,16.51,0,16.51s34.34,0,36.78,0c0-4.72,2.24-21,20.02-21c17.78,0,19.5,16.28,19.5,21
		c2.44,0,36.7,0,36.7,0s0-11.05,0-16.51c0-6.28,18-6.1,18,0.51c0,5.89,0,16,0,16s5.53,0,8.32,0c2.09-3.83,12.319-21,17.75-21
		c5.449,0,18.26,21,18.26,21s3.12,0,7.03,0c-0.051-24.8,18.08-33.95,18.62,8C317.44,156.95,299.31,147.8,299.36,123z"/>
	<linearGradient id="SVGID_2_" gradientUnits="userSpaceOnUse" x1="173.5005" y1="1.7334" x2="173.5005" y2="-0.0522">
		<stop  offset="0" style="stop-color:#999"/>
		<stop  offset="0.13" style="stop-color:#AEAEAE"/>
		<stop  offset="0.3236" style="stop-color:#C7C7C7"/>
		<stop  offset="0.5269" style="stop-color:#D8D8D8"/>
		<stop  offset="0.7442" style="stop-color:#E3E3E3"/>
		<stop  offset="1" style="stop-color:#E6E6E6"/>
	</linearGradient>
	<rect x="27" fill="url(#SVGID_2_)" width="293" height="2"/>
	
		<linearGradient id="SVGID_3_" gradientUnits="userSpaceOnUse" x1="169.4995" y1="-108.2666" x2="169.4995" y2="-110.0522" gradientTransform="matrix(-1 0 0 -1 343 120)">
		<stop  offset="0" style="stop-color:#999"/>
		<stop  offset="0.13" style="stop-color:#AEAEAE"/>
		<stop  offset="0.3236" style="stop-color:#C7C7C7"/>
		<stop  offset="0.5269" style="stop-color:#D8D8D8"/>
		<stop  offset="0.7442" style="stop-color:#E3E3E3"/>
		<stop  offset="1" style="stop-color:#E6E6E6"/>
	</linearGradient>
	<rect x="27" y="228" fill="url(#SVGID_3_)" width="293" height="2"/>
</g>
<g id="text">
	<g>
		<g>
			<path fill="#999" stroke="#000" stroke-width="0.5" stroke-miterlimit="10" d="M124.533,52.238
				c0,4.536-1.337,8.169-4.011,10.899c-2.674,2.73-6.139,4.095-10.395,4.095c-4.2,0-7.644-1.372-10.332-4.116
				s-4.032-6.37-4.032-10.878c0-4.76,1.456-8.512,4.368-11.256c2.632-2.492,5.964-3.738,9.996-3.738
				c4.256,0,7.721,1.365,10.395,4.095C123.195,44.069,124.533,47.702,124.533,52.238z M117.309,52.238
				c0-3.136-0.336-5.656-1.008-7.56c-1.148-3.276-3.207-4.914-6.174-4.914c-2.128,0-3.78,0.84-4.956,2.52
				c-1.456,2.072-2.184,5.39-2.184,9.954c0,5.012,0.854,8.512,2.562,10.5c1.12,1.316,2.646,1.974,4.578,1.974
				s3.458-0.657,4.578-1.974C116.44,60.722,117.309,57.222,117.309,52.238z"/>
			<path fill="#999" stroke="#000" stroke-width="0.5" stroke-miterlimit="10" d="M153.68,57.908l-0.42,6.594
				c-1.568,0.98-3.375,1.708-5.418,2.184c-1.568,0.364-3.192,0.546-4.872,0.546c-4.424,0-7.952-1.26-10.584-3.78
				c-2.716-2.604-4.074-6.244-4.074-10.92c0-4.788,1.365-8.533,4.095-11.235c2.73-2.702,6.279-4.053,10.647-4.053
				c1.596,0,3.171,0.217,4.725,0.651c1.554,0.435,3.017,1.029,4.389,1.785l0.378,5.712h-1.344c-0.868-2.016-1.988-3.5-3.36-4.452
				c-1.148-0.784-2.408-1.176-3.78-1.176c-2.325,0-4.256,0.994-5.796,2.982c-1.821,2.352-2.73,5.769-2.73,10.248
				c0,4.396,0.98,7.588,2.94,9.576c1.428,1.428,3.219,2.142,5.376,2.142c2.072,0,3.885-0.665,5.439-1.995
				c1.554-1.33,2.568-2.933,3.045-4.809H153.68z"/>
			<path fill="#999" stroke="#000" stroke-width="0.5" stroke-miterlimit="10" d="M183.164,57.908l-0.42,6.594
				c-1.568,0.98-3.375,1.708-5.418,2.184c-1.568,0.364-3.191,0.546-4.872,0.546c-4.424,0-7.952-1.26-10.584-3.78
				c-2.716-2.604-4.074-6.244-4.074-10.92c0-4.788,1.365-8.533,4.095-11.235c2.73-2.702,6.279-4.053,10.647-4.053
				c1.597,0,3.171,0.217,4.726,0.651c1.553,0.435,3.016,1.029,4.389,1.785l0.377,5.712h-1.344c-0.867-2.016-1.988-3.5-3.359-4.452
				c-1.148-0.784-2.408-1.176-3.78-1.176c-2.325,0-4.256,0.994-5.796,2.982c-1.821,2.352-2.73,5.769-2.73,10.248
				c0,4.396,0.98,7.588,2.94,9.576c1.428,1.428,3.219,2.142,5.376,2.142c2.072,0,3.884-0.665,5.439-1.995
				c1.555-1.33,2.568-2.933,3.045-4.809H183.164z"/>
			<path fill="#999" stroke="#000" stroke-width="0.5" stroke-miterlimit="10" d="M214.916,66.644h-10.92v-2.1h1.387
				c0.391,0,0.615-0.139,0.672-0.417v-0.292l-0.252-0.792l-1.807-5.092h-10.164l-1.596,4.466l-0.463,1.502v0.292
				c0.084,0.223,0.434,0.334,1.051,0.334h1.051v2.1h-8.484v-2.1c1.512,0,2.576-0.363,3.191-1.092
				c0.225-0.28,0.588-1.078,1.092-2.394l6.51-17.22c0.111-0.308,0.225-0.623,0.336-0.945c0.111-0.322,0.168-0.609,0.168-0.861
				c0-0.308-0.084-0.546-0.252-0.714s-0.588-0.252-1.26-0.252h-0.461v-1.344c1.203,0,2.141-0.154,2.813-0.462
				s1.625-0.98,2.857-2.016h1.721l8.527,23.093c0.391,1.066,0.727,1.852,1.008,2.356c0.615,1.094,1.314,1.711,2.1,1.851h1.176
				V66.644z M202.945,55.43l-3.82-10.5h-0.504l-3.822,10.5H202.945z"/>
			<path fill="#999" stroke="#000" stroke-width="0.5" stroke-miterlimit="10" d="M254.605,66.644h-12.055v-2.1
				c1.232,0,1.934-0.084,2.102-0.252s0.252-0.405,0.252-0.714c-0.029-0.224-0.043-0.392-0.043-0.504l-2.688-18.354h-0.463
				l-7.098,21.336h-3.107l-6.889-21.336h-0.42l-2.352,16.758l-0.084,0.756l-0.043,0.294l-0.084,0.672
				c0,0.896,0.561,1.344,1.682,1.344h1.176v2.1h-8.988v-2.1h1.049c1.01,0,1.723-0.294,2.143-0.882
				c0.309-0.42,0.531-1.148,0.672-2.184l2.52-17.766c0.057-0.336,0.127-0.825,0.211-1.47c0.084-0.644,0.125-1.064,0.125-1.26
				c0-0.308-0.168-0.56-0.504-0.756c-0.336-0.196-0.965-0.294-1.889-0.294h-0.715v-2.1h10.207l5.795,18.312h0.42l6.174-18.312h9.156
				v2.1h-1.049c-0.588,0-0.98,0.112-1.178,0.336c-0.195,0.225-0.293,0.532-0.293,0.924c0.027,0.225,0.041,0.378,0.041,0.462
				l2.982,20.286c0.168,1.12,0.434,1.862,0.799,2.226c0.252,0.252,0.686,0.378,1.301,0.378h0.547h0.588V66.644z"/>
		</g>
		<g>
			<path d="M123.499,52.238c0,4.536-1.337,8.169-4.011,10.899c-2.674,2.73-6.139,4.095-10.395,4.095
				c-4.2,0-7.644-1.372-10.332-4.116s-4.032-6.37-4.032-10.878c0-4.76,1.456-8.512,4.368-11.256
				c2.632-2.492,5.964-3.738,9.996-3.738c4.256,0,7.721,1.365,10.395,4.095C122.162,44.069,123.499,47.702,123.499,52.238z
				 M116.275,52.238c0-3.136-0.336-5.656-1.008-7.56c-1.148-3.276-3.207-4.914-6.174-4.914c-2.128,0-3.78,0.84-4.956,2.52
				c-1.456,2.072-2.184,5.39-2.184,9.954c0,5.012,0.854,8.512,2.562,10.5c1.12,1.316,2.646,1.974,4.578,1.974
				s3.458-0.657,4.578-1.974C115.407,60.722,116.275,57.222,116.275,52.238z"/>
			<path d="M152.646,57.908l-0.42,6.594c-1.568,0.98-3.375,1.708-5.418,2.184c-1.568,0.364-3.192,0.546-4.872,0.546
				c-4.424,0-7.952-1.26-10.584-3.78c-2.716-2.604-4.074-6.244-4.074-10.92c0-4.788,1.365-8.533,4.095-11.235
				c2.73-2.702,6.279-4.053,10.647-4.053c1.596,0,3.171,0.217,4.725,0.651c1.554,0.435,3.017,1.029,4.389,1.785l0.378,5.712h-1.344
				c-0.868-2.016-1.988-3.5-3.36-4.452c-1.148-0.784-2.408-1.176-3.78-1.176c-2.325,0-4.256,0.994-5.796,2.982
				c-1.821,2.352-2.73,5.769-2.73,10.248c0,4.396,0.98,7.588,2.94,9.576c1.428,1.428,3.219,2.142,5.376,2.142
				c2.072,0,3.885-0.665,5.439-1.995c1.554-1.33,2.568-2.933,3.045-4.809H152.646z"/>
			<path d="M182.131,57.908l-0.42,6.594c-1.568,0.98-3.375,1.708-5.418,2.184c-1.568,0.364-3.192,0.546-4.873,0.546
				c-4.424,0-7.952-1.26-10.584-3.78c-2.716-2.604-4.074-6.244-4.074-10.92c0-4.788,1.365-8.533,4.095-11.235
				c2.73-2.702,6.279-4.053,10.647-4.053c1.596,0,3.171,0.217,4.725,0.651c1.554,0.435,3.017,1.029,4.389,1.785l0.378,5.712h-1.344
				c-0.868-2.016-1.988-3.5-3.359-4.452c-1.148-0.784-2.409-1.176-3.78-1.176c-2.325,0-4.256,0.994-5.796,2.982
				c-1.821,2.352-2.73,5.769-2.73,10.248c0,4.396,0.98,7.588,2.94,9.576c1.428,1.428,3.219,2.142,5.376,2.142
				c2.072,0,3.885-0.665,5.438-1.995c1.555-1.33,2.569-2.933,3.045-4.809H182.131z"/>
			<path d="M213.883,66.644h-10.92v-2.1h1.386c0.392,0,0.615-0.139,0.672-0.417v-0.292l-0.252-0.792l-1.806-5.092h-10.164
				l-1.597,4.466l-0.462,1.502v0.292c0.084,0.223,0.434,0.334,1.05,0.334h1.051v2.1h-8.484v-2.1c1.512,0,2.576-0.363,3.192-1.092
				c0.224-0.28,0.588-1.078,1.092-2.394l6.51-17.22c0.111-0.308,0.224-0.623,0.336-0.945c0.111-0.322,0.168-0.609,0.168-0.861
				c0-0.308-0.084-0.546-0.252-0.714s-0.588-0.252-1.26-0.252h-0.462v-1.344c1.203,0,2.142-0.154,2.813-0.462
				s1.624-0.98,2.856-2.016h1.722l8.526,23.093c0.392,1.066,0.728,1.852,1.008,2.356c0.615,1.094,1.315,1.711,2.1,1.851h1.177
				V66.644z M201.912,55.43l-3.821-10.5h-0.504l-3.822,10.5H201.912z"/>
			<path d="M253.572,66.644h-12.055v-2.1c1.232,0,1.933-0.084,2.101-0.252s0.252-0.405,0.252-0.714
				c-0.028-0.224-0.042-0.392-0.042-0.504L241.14,44.72h-0.462l-7.098,21.336h-3.108l-6.888-21.336h-0.42l-2.353,16.758
				l-0.084,0.756l-0.042,0.294l-0.084,0.672c0,0.896,0.56,1.344,1.681,1.344h1.176v2.1h-8.988v-2.1h1.05
				c1.009,0,1.723-0.294,2.143-0.882c0.308-0.42,0.531-1.148,0.672-2.184l2.52-17.766c0.056-0.336,0.126-0.825,0.21-1.47
				c0.084-0.644,0.126-1.064,0.126-1.26c0-0.308-0.168-0.56-0.504-0.756c-0.336-0.196-0.966-0.294-1.89-0.294h-0.714v-2.1h10.206
				l5.796,18.312h0.42l6.174-18.312h9.156v2.1h-1.05c-0.588,0-0.98,0.112-1.177,0.336c-0.196,0.225-0.294,0.532-0.294,0.924
				c0.028,0.225,0.042,0.378,0.042,0.462l2.982,20.286c0.168,1.12,0.434,1.862,0.798,2.226c0.252,0.252,0.686,0.378,1.302,0.378
				h0.546h0.589V66.644z"/>
		</g>
	</g>
	<g>
		<g>
			<path fill="#999" stroke="#000" stroke-width="0.5" stroke-miterlimit="10" d="M224.018,180.814
				c0-4.535,1.337-8.168,4.011-10.898c2.675-2.73,6.14-4.095,10.396-4.095c4.199,0,7.644,1.372,10.332,4.116
				c2.688,2.744,4.031,6.369,4.031,10.877c0,4.761-1.455,8.512-4.367,11.257c-2.633,2.491-5.965,3.737-9.996,3.737
				c-4.256,0-7.721-1.364-10.396-4.094C225.354,188.984,224.018,185.352,224.018,180.814z M231.241,180.814
				c0,3.137,0.336,5.656,1.008,7.561c1.148,3.276,3.206,4.914,6.175,4.914c2.127,0,3.779-0.84,4.955-2.52
				c1.457-2.072,2.185-5.391,2.185-9.955c0-5.012-0.854-8.512-2.562-10.5c-1.12-1.316-2.646-1.973-4.578-1.973
				c-1.933,0-3.459,0.656-4.578,1.973C232.109,172.331,231.241,175.831,231.241,180.814z"/>
			<path fill="#999" stroke="#000" stroke-width="0.5" stroke-miterlimit="10" d="M194.869,175.145l0.42-6.594
				c1.568-0.98,3.375-1.708,5.418-2.184c1.568-0.363,3.192-0.546,4.873-0.546c4.424,0,7.951,1.26,10.584,3.78
				c2.716,2.604,4.073,6.243,4.073,10.92c0,4.787-1.364,8.532-4.095,11.234s-6.279,4.053-10.646,4.053
				c-1.597,0-3.172-0.217-4.726-0.65c-1.554-0.435-3.017-1.029-4.39-1.785l-0.377-5.712h1.344c0.868,2.017,1.988,3.5,3.359,4.452
				c1.148,0.783,2.408,1.176,3.78,1.176c2.325,0,4.257-0.994,5.796-2.982c1.82-2.352,2.73-5.768,2.73-10.248
				c0-4.396-0.98-7.588-2.94-9.575c-1.428-1.429-3.22-2.142-5.376-2.142c-2.072,0-3.885,0.664-5.439,1.994
				c-1.553,1.33-2.568,2.934-3.045,4.809H194.869z"/>
			<path fill="#999" stroke="#000" stroke-width="0.5" stroke-miterlimit="10" d="M165.386,175.145l0.42-6.594
				c1.568-0.98,3.375-1.708,5.418-2.184c1.568-0.363,3.192-0.546,4.872-0.546c4.424,0,7.952,1.26,10.584,3.78
				c2.717,2.604,4.074,6.243,4.074,10.92c0,4.787-1.365,8.532-4.096,11.234c-2.729,2.702-6.279,4.053-10.646,4.053
				c-1.596,0-3.171-0.217-4.725-0.65c-1.554-0.435-3.017-1.029-4.389-1.785l-0.378-5.712h1.344c0.868,2.017,1.988,3.5,3.359,4.452
				c1.148,0.783,2.408,1.176,3.78,1.176c2.324,0,4.256-0.994,5.795-2.982c1.821-2.352,2.73-5.768,2.73-10.248
				c0-4.396-0.979-7.588-2.939-9.575c-1.428-1.429-3.22-2.142-5.377-2.142c-2.071,0-3.884,0.664-5.438,1.994
				c-1.555,1.33-2.569,2.934-3.045,4.809H165.386z"/>
			<path fill="#999" stroke="#000" stroke-width="0.5" stroke-miterlimit="10" d="M133.634,166.409h10.92v2.101h-1.386
				c-0.392,0-0.615,0.139-0.672,0.417v0.292l0.252,0.793l1.806,5.092h10.164l1.597-4.467l0.462-1.502v-0.291
				c-0.084-0.224-0.434-0.334-1.05-0.334h-1.051v-2.101h8.484v2.101c-1.512,0-2.576,0.363-3.192,1.092
				c-0.224,0.279-0.588,1.077-1.092,2.394l-6.51,17.22c-0.111,0.309-0.224,0.623-0.336,0.945c-0.111,0.322-0.168,0.609-0.168,0.861
				c0,0.308,0.084,0.546,0.252,0.714s0.588,0.252,1.26,0.252h0.462v1.344c-1.203,0-2.142,0.153-2.813,0.462s-1.624,0.98-2.856,2.016
				h-1.722l-8.526-23.093c-0.392-1.065-0.728-1.852-1.008-2.356c-0.615-1.094-1.315-1.711-2.1-1.85h-1.177V166.409z
				 M145.604,177.623l3.821,10.5h0.504l3.822-10.5H145.604z"/>
			<path fill="#999" stroke="#000" stroke-width="0.5" stroke-miterlimit="10" d="M93.944,166.409h12.055v2.101
				c-1.232,0-1.933,0.084-2.101,0.252s-0.252,0.404-0.252,0.713c0.028,0.225,0.042,0.393,0.042,0.504l2.688,18.354h0.462
				l7.098-21.336h3.108l6.888,21.336h0.42l2.353-16.758l0.084-0.756l0.042-0.294l0.084-0.672c0-0.896-0.56-1.344-1.681-1.344h-1.176
				v-2.101h8.988v2.101h-1.05c-1.009,0-1.723,0.293-2.143,0.881c-0.308,0.42-0.531,1.148-0.672,2.185l-2.52,17.767
				c-0.056,0.336-0.126,0.824-0.21,1.469s-0.126,1.064-0.126,1.261c0,0.308,0.168,0.56,0.504,0.756s0.966,0.294,1.89,0.294h0.714
				v2.1h-10.206l-5.796-18.312h-0.42l-6.174,18.312h-9.156v-2.1h1.05c0.588,0,0.98-0.112,1.177-0.336
				c0.196-0.225,0.294-0.532,0.294-0.924c-0.028-0.225-0.042-0.378-0.042-0.462l-2.982-20.286c-0.168-1.12-0.434-1.862-0.798-2.227
				c-0.252-0.252-0.686-0.377-1.302-0.377h-0.546h-0.589V166.409z"/>
		</g>
		<g>
			<path d="M225.051,180.814c0-4.535,1.338-8.168,4.012-10.898s6.139-4.095,10.395-4.095c4.2,0,7.645,1.372,10.332,4.116
				c2.688,2.744,4.032,6.369,4.032,10.877c0,4.761-1.456,8.512-4.368,11.257c-2.631,2.491-5.964,3.737-9.996,3.737
				c-4.256,0-7.721-1.364-10.395-4.094C226.389,188.984,225.051,185.352,225.051,180.814z M232.275,180.814
				c0,3.137,0.336,5.656,1.008,7.561c1.148,3.276,3.207,4.914,6.174,4.914c2.129,0,3.78-0.84,4.957-2.52
				c1.455-2.072,2.184-5.391,2.184-9.955c0-5.012-0.854-8.512-2.563-10.5c-1.119-1.316-2.646-1.973-4.578-1.973
				c-1.932,0-3.457,0.656-4.578,1.973C233.144,172.331,232.275,175.831,232.275,180.814z"/>
			<path d="M195.904,175.145l0.42-6.594c1.568-0.98,3.374-1.708,5.418-2.184c1.568-0.363,3.191-0.546,4.871-0.546
				c4.425,0,7.953,1.26,10.584,3.78c2.717,2.604,4.074,6.243,4.074,10.92c0,4.787-1.365,8.532-4.095,11.234
				s-6.279,4.053-10.647,4.053c-1.596,0-3.171-0.217-4.725-0.65c-1.555-0.435-3.018-1.029-4.389-1.785l-0.379-5.712h1.345
				c0.868,2.017,1.988,3.5,3.36,4.452c1.148,0.783,2.408,1.176,3.779,1.176c2.324,0,4.256-0.994,5.796-2.982
				c1.821-2.352,2.73-5.768,2.73-10.248c0-4.396-0.979-7.588-2.94-9.575c-1.428-1.429-3.219-2.142-5.376-2.142
				c-2.071,0-3.885,0.664-5.438,1.994c-1.555,1.33-2.568,2.934-3.045,4.809H195.904z"/>
			<path d="M166.42,175.145l0.42-6.594c1.568-0.98,3.375-1.708,5.418-2.184c1.568-0.363,3.191-0.546,4.872-0.546
				c4.425,0,7.952,1.26,10.584,3.78c2.716,2.604,4.073,6.243,4.073,10.92c0,4.787-1.364,8.532-4.094,11.234
				c-2.73,2.702-6.279,4.053-10.647,4.053c-1.597,0-3.171-0.217-4.725-0.65c-1.554-0.435-3.017-1.029-4.389-1.785l-0.378-5.712
				h1.344c0.868,2.017,1.988,3.5,3.359,4.452c1.148,0.783,2.408,1.176,3.779,1.176c2.325,0,4.257-0.994,5.797-2.982
				c1.82-2.352,2.73-5.768,2.73-10.248c0-4.396-0.98-7.588-2.941-9.575c-1.428-1.429-3.219-2.142-5.375-2.142
				c-2.072,0-3.885,0.664-5.438,1.994c-1.555,1.33-2.569,2.934-3.045,4.809H166.42z"/>
			<path d="M134.668,166.409h10.92v2.101h-1.386c-0.392,0-0.615,0.139-0.672,0.417v0.292l0.252,0.793l1.806,5.092h10.164
				l1.597-4.467l0.462-1.502v-0.291c-0.084-0.224-0.434-0.334-1.05-0.334h-1.051v-2.101h8.484v2.101
				c-1.512,0-2.576,0.363-3.192,1.092c-0.224,0.279-0.588,1.077-1.092,2.394l-6.51,17.22c-0.111,0.309-0.224,0.623-0.336,0.945
				c-0.111,0.322-0.168,0.609-0.168,0.861c0,0.308,0.084,0.546,0.252,0.714s0.588,0.252,1.26,0.252h0.462v1.344
				c-1.203,0-2.142,0.153-2.813,0.462s-1.624,0.98-2.856,2.016h-1.722l-8.526-23.093c-0.392-1.065-0.728-1.852-1.008-2.356
				c-0.615-1.094-1.315-1.711-2.1-1.85h-1.177V166.409z M146.639,177.623l3.821,10.5h0.504l3.822-10.5H146.639z"/>
			<path d="M94.979,166.409h12.055v2.101c-1.232,0-1.933,0.084-2.101,0.252s-0.252,0.404-0.252,0.713
				c0.028,0.225,0.042,0.393,0.042,0.504l2.688,18.354h0.462l7.098-21.336h3.108l6.888,21.336h0.42l2.353-16.758l0.084-0.756
				l0.042-0.294l0.084-0.672c0-0.896-0.56-1.344-1.681-1.344h-1.176v-2.101h8.988v2.101h-1.05c-1.009,0-1.723,0.293-2.143,0.881
				c-0.308,0.42-0.531,1.148-0.672,2.185l-2.52,17.767c-0.056,0.336-0.126,0.824-0.21,1.469s-0.126,1.064-0.126,1.261
				c0,0.308,0.168,0.56,0.504,0.756s0.966,0.294,1.89,0.294h0.714v2.1h-10.206l-5.796-18.312h-0.42l-6.174,18.312h-9.156v-2.1h1.05
				c0.588,0,0.98-0.112,1.177-0.336c0.196-0.225,0.294-0.532,0.294-0.924c-0.028-0.225-0.042-0.378-0.042-0.462l-2.982-20.286
				c-0.168-1.12-0.434-1.862-0.798-2.227c-0.252-0.252-0.686-0.377-1.302-0.377h-0.546h-0.589V166.409z"/>
		</g>
	</g>
</g>
</svg>
